<svg height="400" version="1.1" width="640" xmlns="http://www.w3.org/2000/svg" xmlns:xlink="http://www.w3.org/1999/xlink" style="overflow: hidden; position: relative; top: -0.2px;"><desc style="-webkit-tap-highlight-color: rgba(0, 0, 0, 0);">Created with Raphaël 2.3.0</desc><defs style="-webkit-tap-highlight-color: rgba(0, 0, 0, 0);"></defs><path fill="#3069bf" stroke="none" d="M320,180L213.93398282201787,73.93398282201787A150,150,0,0,1,426.06601717798213,73.93398282201788Z" stroke-width="1" stroke-linejoin="round" style="-webkit-tap-highlight-color: rgba(0, 0, 0, 0); stroke-linejoin: round;"></path><path fill="#a3bf30" stroke="none" d="M320,180L426.06601717798213,73.93398282201788A150,150,0,0,1,426.06601717798213,286.06601717798213Z" stroke-width="1" stroke-linejoin="round" style="-webkit-tap-highlight-color: rgba(0, 0, 0, 0); stroke-linejoin: round;"></path><path fill="#bf5b30" stroke="none" d="M320,180L426.06601717798213,286.06601717798213A150,150,0,0,1,213.93398282201787,286.06601717798213Z" stroke-width="1" stroke-linejoin="round" style="-webkit-tap-highlight-color: rgba(0, 0, 0, 0); stroke-linejoin: round;"></path><path fill="#bfa330" stroke="none" d="M320,180L213.93398282201787,286.06601717798213A150,150,0,0,1,213.93398282201787,73.93398282201788Z" stroke-width="1" stroke-linejoin="round" style="-webkit-tap-highlight-color: rgba(0, 0, 0, 0); stroke-linejoin: round;"></path><path fill="#000000" stroke="none" d="M320,180L213.93398282201787,73.93398282201787A150,150,0,0,1,426.06601717798213,73.93398282201788Z" fill-opacity="0" style="-webkit-tap-highlight-color: rgba(0, 0, 0, 0); fill-opacity: 0;"></path><path fill="#000000" stroke="none" d="M320,180L426.06601717798213,73.93398282201788A150,150,0,0,1,426.06601717798213,286.06601717798213Z" fill-opacity="0" style="-webkit-tap-highlight-color: rgba(0, 0, 0, 0); fill-opacity: 0;"></path><path fill="#000000" stroke="none" d="M320,180L426.06601717798213,286.06601717798213A150,150,0,0,1,213.93398282201787,286.06601717798213Z" fill-opacity="0" style="-webkit-tap-highlight-color: rgba(0, 0, 0, 0); fill-opacity: 0;"></path><path fill="#000000" stroke="none" d="M320,180L213.93398282201787,286.06601717798213A150,150,0,0,1,213.93398282201787,73.93398282201788Z" fill-opacity="0" style="-webkit-tap-highlight-color: rgba(0, 0, 0, 0); fill-opacity: 0;"></path><circle cx="505" cy="190" r="5" fill="#3069bf" stroke="none" style="-webkit-tap-highlight-color: rgba(0, 0, 0, 0);" transform="matrix(1,0,0,1,0,-31.3125)"></circle><text x="520" y="190" text-anchor="start" font-family="&quot;Arial&quot;" font-size="10px" stroke="none" fill="#000000" style="-webkit-tap-highlight-color: rgba(0, 0, 0, 0); text-anchor: start; font: 12px Arial, sans-serif;" font="12px Arial, sans-serif" transform="matrix(1,0,0,1,0,-31.3125)"><tspan dy="4.3984375" style="-webkit-tap-highlight-color: rgba(0, 0, 0, 0);">25</tspan></text><circle cx="505" cy="206.35" r="5" fill="#a3bf30" stroke="none" style="-webkit-tap-highlight-color: rgba(0, 0, 0, 0);" transform="matrix(1,0,0,1,0,-31.3125)"></circle><text x="520" y="206.35" text-anchor="start" font-family="&quot;Arial&quot;" font-size="10px" stroke="none" fill="#000000" style="-webkit-tap-highlight-color: rgba(0, 0, 0, 0); text-anchor: start; font: 12px Arial, sans-serif;" font="12px Arial, sans-serif" transform="matrix(1,0,0,1,0,-31.3125)"><tspan dy="4.396874999999994" style="-webkit-tap-highlight-color: rgba(0, 0, 0, 0);">25</tspan></text><circle cx="505" cy="222.68125" r="5" fill="#bf5b30" stroke="none" style="-webkit-tap-highlight-color: rgba(0, 0, 0, 0);" transform="matrix(1,0,0,1,0,-31.3125)"></circle><text x="520" y="222.68125" text-anchor="start" font-family="&quot;Arial&quot;" font-size="10px" stroke="none" fill="#000000" style="-webkit-tap-highlight-color: rgba(0, 0, 0, 0); text-anchor: start; font: 12px Arial, sans-serif;" font="12px Arial, sans-serif" transform="matrix(1,0,0,1,0,-31.3125)"><tspan dy="4.400000000000006" style="-webkit-tap-highlight-color: rgba(0, 0, 0, 0);">25</tspan></text><circle cx="505" cy="239.01250000000002" r="5" fill="#bfa330" stroke="none" style="-webkit-tap-highlight-color: rgba(0, 0, 0, 0);" transform="matrix(1,0,0,1,0,-31.3125)"></circle><text x="520" y="239.01250000000002" text-anchor="start" font-family="&quot;Arial&quot;" font-size="10px" stroke="none" fill="#000000" style="-webkit-tap-highlight-color: rgba(0, 0, 0, 0); text-anchor: start; font: 12px Arial, sans-serif;" font="12px Arial, sans-serif" transform="matrix(1,0,0,1,0,-31.3125)"><tspan dy="4.395312500000017" style="-webkit-tap-highlight-color: rgba(0, 0, 0, 0);">25</tspan></text></svg>